<svg version="1.2" xmlns="http://www.w3.org/2000/svg" viewBox="0 0 819 819" width="819" height="819">
	<title>hut</title>
	<style>
		.s0 { fill: #1f181b } 
		.s1 { fill: #6b362e } 
		.s2 { fill: #e9eaea } 
		.s3 { fill: #b03721 } 
	</style>
	<g id="Background">
		<path id="Path 1" class="s0" d="m382 31.04c-6.32 0.5-16.68 1.62-23 2.49-6.32 0.88-18.02 2.9-26 4.51-7.98 1.6-20.8 4.75-28.5 7-7.7 2.25-20.07 6.37-27.5 9.16-7.43 2.78-18.68 7.43-25 10.33-6.32 2.9-16.9 8.18-23.5 11.74-6.6 3.56-16.5 9.31-22 12.77-5.5 3.47-14.95 9.88-21 14.26-6.05 4.38-14.82 11.17-19.5 15.08-4.67 3.92-13.39 11.84-19.38 17.62-5.99 5.78-15.48 15.68-21.08 22-5.6 6.32-14.24 16.9-19.19 23.5-4.95 6.6-10.82 14.7-13.05 18-2.22 3.3-6.63 10.27-9.81 15.5-3.17 5.23-9.04 16.02-13.03 24-4 7.98-9.27 19.23-11.72 25-2.46 5.77-6.28 15.68-8.5 22-2.22 6.32-5.86 18.25-8.09 26.5-2.23 8.25-4.95 19.73-6.04 25.5-1.09 5.77-2.69 15.9-3.55 22.5-0.86 6.6-2.01 20.1-2.56 30-0.64 11.72-0.65 24.8-0.03 37.5 0.53 10.73 1.91 26.25 3.06 34.5 1.15 8.25 3.37 21.08 4.94 28.5 1.56 7.42 4.28 18.45 6.04 24.5 1.76 6.05 4.89 15.73 6.95 21.5 2.07 5.77 5.68 15 8.02 20.5 2.35 5.5 6.97 15.4 10.27 22 3.31 6.6 9.39 17.63 13.52 24.5 4.13 6.88 11.16 17.63 15.62 23.9 4.46 6.28 12.83 17.06 18.61 23.98 5.78 6.91 16.6 18.65 24.05 26.09 7.46 7.44 20.06 18.75 28 25.14 7.95 6.38 19.4 14.99 25.45 19.13 6.05 4.14 17.07 11.01 24.5 15.27 7.43 4.25 19.57 10.55 27 14 7.43 3.45 18.68 8.3 25 10.77 6.32 2.48 16.45 6.09 22.5 8.03 6.05 1.95 15.73 4.73 21.5 6.19 5.77 1.46 16.13 3.71 23 5 6.88 1.28 18.57 3.16 26 4.17 10.75 1.45 20.03 1.83 45.5 1.82 24.83-0.01 35.14-0.42 46-1.81 7.7-0.98 21.65-3.31 31-5.18 9.35-1.87 22.4-4.97 29-6.89 6.6-1.92 16.95-5.26 23-7.43 6.05-2.16 15.5-5.84 21-8.18 5.5-2.34 16.08-7.3 23.5-11.03 7.42-3.73 18.45-9.79 24.5-13.47 6.05-3.68 15.27-9.68 20.5-13.32 5.23-3.64 15.13-11.13 22-16.64 6.88-5.52 18.08-15.43 24.91-22.03 6.83-6.61 17.85-18.34 24.5-26.08 6.65-7.73 15.92-19.55 20.59-26.25 4.67-6.71 11.56-17.26 15.29-23.44 3.74-6.18 10.1-17.76 14.14-25.74 4.04-7.98 10.03-21.25 13.32-29.5 3.29-8.25 7.82-21.08 10.07-28.5 2.24-7.42 5.2-18 6.56-23.5 1.37-5.5 3.4-15.17 4.53-21.5 1.12-6.33 2.74-18.25 3.6-26.5 0.91-8.69 1.58-24.46 1.6-37.5 0.01-12.37-0.47-28.35-1.07-35.5-0.61-7.15-1.97-18.4-3.04-25-1.06-6.6-2.85-16.5-3.98-22-1.13-5.5-3.89-16.52-6.14-24.5-2.26-7.98-6.02-19.68-8.37-26-2.36-6.32-7.07-17.8-10.47-25.5-3.41-7.7-9.16-19.4-12.78-26-3.63-6.6-9.31-16.27-12.64-21.5-3.33-5.23-8.3-12.65-11.04-16.5-2.74-3.85-9.26-12.4-14.5-19-5.23-6.6-17.4-19.9-27.05-29.56-9.64-9.66-23.16-22.06-30.03-27.55-6.87-5.49-18.13-13.77-25-18.39-6.87-4.62-17.45-11.27-23.5-14.78-6.05-3.51-17.08-9.33-24.5-12.93-7.42-3.6-18.9-8.7-25.5-11.34-6.6-2.64-16.95-6.42-23-8.39-6.05-1.98-18.2-5.37-27-7.53-8.8-2.15-21.63-4.85-28.5-5.97-6.87-1.13-16.77-2.52-22-3.09-5.23-0.57-19.85-1.21-32.5-1.43-12.65-0.22-28.18 0.01-34.5 0.5z"/>
		<path id="Path 2" class="s1" d="m140.48 141.25l-8.98 9.25c14.35-13.95 18.51-18.11 18.51-18.25-0.01-0.14-0.13-0.25-0.28-0.25-0.15 0-4.31 4.16-9.25 9.25zm538.52 1.01c5.77 5.91 10.61 10.75 10.75 10.75 0.14-0.01 0.25-0.12 0.26-0.26 0-0.14-4.84-4.97-10.75-10.75l-10.76-10.5zm-649.67 252.24c0 3.85 0.18 5.2 0.4 3 0.21-2.2 0.21-5.35-0.01-7-0.22-1.65-0.4 0.15-0.39 4zm760.02 5.5c0 4.68 0.17 6.48 0.38 4 0.21-2.47 0.21-6.3 0-8.5-0.21-2.2-0.38-0.17-0.38 4.5zm0.01 22c0 5.23 0.17 7.25 0.38 4.5 0.2-2.75 0.2-7.02 0-9.5-0.21-2.47-0.38-0.22-0.38 5zm-760.02 2.5c0.01 4.4 0.18 5.98 0.39 3.5 0.21-2.47 0.21-6.07 0-8-0.22-1.92-0.39 0.1-0.39 4.5zm649.64 253.25l-9.48 9.75c15.12-14.72 19.51-19.11 19.51-19.25-0.01-0.13-0.13-0.25-0.28-0.25-0.15 0-4.54 4.39-9.75 9.75zm-277.48 111c4.95 0.18 12.6 0.18 17 0 4.4-0.19 0.35-0.34-9-0.34-9.35 0-12.95 0.16-8 0.34z"/>
		<path id="Path 3" class="s2" d="m184.5 182.16c-3.85 0.5-7.31 1.23-7.68 1.62-0.38 0.4 4.49 10.4 10.82 22.22 6.33 11.82 14.46 26.68 18.07 33 3.61 6.32 11.51 19.6 17.57 29.5 6.05 9.9 16.97 27 24.27 38 7.29 11 17.42 25.85 22.51 33 5.08 7.15 13.3 18.4 18.27 25 4.96 6.6 12.64 16.5 17.06 22 4.41 5.5 13.22 16.07 19.57 23.5 6.35 7.42 15.75 17.99 20.9 23.5 5.15 5.5 12.8 13.24 17 17.21 6.63 6.25 8.13 7.21 11.39 7.25 2.06 0.02 9.49-0.43 16.5-1.01 7.01-0.58 19.05-1.96 26.75-3.06 7.7-1.1 19.17-3.15 25.5-4.57 6.33-1.41 14.76-3.64 18.75-4.95 3.99-1.3 7.48-2.37 7.75-2.37 0.27 0 5.56 4.78 11.75 10.62 6.19 5.84 12.6 11.54 14.25 12.67 1.65 1.12-16.09-16.82-39.42-39.87-23.33-23.06-57.75-57.9-76.5-77.43-18.74-19.53-47.81-50.14-64.58-68.02-16.77-17.88-40.67-43.53-53.1-56.99-12.42-13.46-26.15-28.43-30.5-33.26l-7.9-8.78c-24.8 0.24-35.15 0.72-39 1.22zm-106 241.82c-3.85 0.45-13.75 1.98-22 3.42-8.25 1.44-16.35 2.87-18 3.18-1.84 0.34-2.61 0.9-2 1.43 0.55 0.48 3.93 1.35 7.5 1.92 3.57 0.58 10.78 1.06 16 1.06 5.22 0.01 17.15-0.72 26.5-1.6 9.35-0.89 17.9-1.97 19-2.4 1.66-0.65 0.81-1.33-5-4-3.85-1.77-8.8-3.35-11-3.52-2.2-0.16-7.15 0.07-11 0.51zm19 16.43l-14 7.38c0.28 14.5 1.1 31.31 1.99 46.71 0.89 15.4 1.81 28.9 2.03 30 0.4 1.95 1.15 1.88 31.2-2.85 16.93-2.67 31.34-5.03 32.03-5.25 0.94-0.3 0.78-1.45-0.63-4.65-1.04-2.34-8.28-17.75-16.09-34.25-7.82-16.5-15.86-33.28-17.87-37.29-2.01-4.01-3.88-7.27-4.16-7.24-0.28 0.04-6.8 3.38-14.5 7.44zm419 2.68c-5.5 0.45-12.92 1.31-16.5 1.91-3.58 0.61-8.3 1.55-10.5 2.1l-4 0.99c14.2 14.55 16.43 17.53 16.25 19.12-0.21 1.87-2.44 3-14.75 7.5-7.98 2.92-19 7.54-24.5 10.27-5.5 2.73-12.14 6.55-14.75 8.49-2.61 1.94-5.03 4.54-5.37 5.78-0.34 1.24-0.34 3.04 0 4 0.34 0.96 2.31 2.61 4.37 3.65 2.06 1.05 7.13 2.6 11.25 3.45 4.13 0.85 13.58 2.08 21 2.74 8.32 0.73 20.8 0.96 32.5 0.59 10.45-0.33 25.08-1.3 32.5-2.15 7.42-0.85 19.8-2.66 27.5-4.03 7.7-1.36 19.4-3.79 26-5.4 6.6-1.61 17.85-4.83 25-7.16 7.15-2.32 15.92-5.54 19.5-7.15 3.58-1.61 7.96-4.03 9.75-5.36 2.34-1.75 3.04-2.89 2.5-4.06-0.41-0.89-3.9-3.57-7.75-5.94-3.85-2.37-12.17-6.51-18.5-9.21-6.33-2.7-16.45-6.53-22.5-8.52-6.05-1.99-14.6-4.51-19-5.6-4.4-1.09-12.05-2.67-17-3.51-4.95-0.84-14.85-2-22-2.56-7.15-0.57-14.8-0.97-17-0.89-2.2 0.07-8.5 0.51-14 0.95zm-447.02 11.52l-8.86 4.41c-0.09 58.11-0.12 75.77-0.12 76.73 0 1.27 0.69 1.68 2.5 1.5 1.37-0.14 15.55-1.36 31.5-2.72 15.95-1.36 53.52-4.74 83.5-7.52 29.98-2.77 77.45-7.2 105.5-9.83l51-4.78c12.4-7.21 22.07-12.18 29.5-15.71 7.42-3.53 17.43-7.94 22.23-9.8 7.07-2.74 8.5-3.64 7.5-4.68-0.67-0.72-2.13-1.28-3.23-1.26-1.1 0.02-29.45 4.51-63 9.99-33.55 5.48-79 12.93-101 16.57-22 3.64-51.48 8.58-65.5 10.99-14.03 2.4-36.98 6.21-51 8.47-14.03 2.25-25.58 3.97-25.68 3.81-0.09-0.15-1.34-18.28-2.76-40.28-1.42-22-2.72-40.07-2.9-40.15-0.17-0.08-4.3 1.84-9.18 4.26zm513.02 66.49c-3.85 1.05-11.05 2.62-16 3.48-4.95 0.87-14.17 2.21-20.5 3-6.33 0.78-13.98 1.46-17 1.49-3.02 0.04-6.4 0.42-7.5 0.84-1.87 0.72-1.83 0.81 0.5 1.33 1.38 0.31 13.08 3.26 26 6.57 12.92 3.31 30.48 7.16 39 8.57 8.52 1.41 20.67 3.02 27 3.59 6.33 0.56 16.23 1.02 22 1.01 5.77-0.01 15.23-0.64 21-1.41 5.77-0.76 12.52-1.97 15-2.69l4.5-1.31c-5.42-0.53-12.4-1.76-19-3.08-6.6-1.32-17.4-4.26-24-6.53-6.6-2.27-17.85-6.84-25-10.17-7.15-3.32-14.35-6.17-16-6.32-1.65-0.15-6.15 0.58-10 1.63z"/>
		<path id="Path 4" class="s3" d="m379.5 38.09c-4.95 0.47-12.82 1.34-17.5 1.95-4.68 0.6-14.57 2.2-22 3.56-7.43 1.35-17.77 3.63-23 5.06-5.23 1.42-13.55 3.84-18.5 5.37-4.95 1.53-13.5 4.41-19 6.41-5.5 2-14.5 5.7-20 8.22-5.5 2.52-14.73 7-20.5 9.94-5.77 2.94-13.09 6.82-16.26 8.62-3.17 1.81-9.92 5.96-15 9.23-5.08 3.27-13.51 9.08-18.74 12.92-5.23 3.83-13.32 10.15-18 14.03-4.68 3.88-12.95 11.34-18.39 16.58-5.44 5.23-12.02 11.77-14.61 14.52-2.59 2.75-7.63 8.38-11.18 12.5-3.56 4.13-9.55 11.55-13.32 16.5-3.77 4.95-10.46 14.4-14.87 21-4.41 6.6-10.44 16.27-13.4 21.5-2.96 5.23-8.67 16.25-12.69 24.5-4.02 8.25-9.56 21.07-12.3 28.5-2.74 7.43-6.34 18-8 23.5-1.66 5.5-3.95 13.82-5.08 18.5-1.13 4.68-2.95 12.77-4.04 18-1.08 5.23-2.26 11.52-2.61 14-0.35 2.48-1.08 8.1-1.62 12.5-0.54 4.4-1.37 14.75-1.83 23-0.62 10.94-0.54 15.35 0.29 16.29 0.85 0.97 5.27 1.29 17.15 1.26l16-0.04c1.99-29.07 3.47-43.13 4.57-50.01 1.11-6.88 2.56-13.08 3.22-13.78 0.75-0.79 1.93-0.98 3.1-0.5 1.63 0.67 1.81 1.48 1.28 5.78-0.33 2.75-1.29 9.5-2.12 15-0.83 5.5-1.86 17.54-2.28 26.76l-0.77 16.76 133-0.52c0.53-16.77 1-19.42 2.3-20.78 0.94-0.98 2.04-1.77 2.45-1.75 0.41 0.02 1.43 0.71 2.25 1.53 1.13 1.13 1.5 3.94 1.5 11.5v10c73.63 0 95-0.34 94.99-0.75-0.01-0.41-3.88-5.48-8.61-11.25-4.72-5.77-14.51-18.44-21.74-28.15-7.22-9.71-15.38-20.74-18.13-24.5-2.74-3.77-12.19-17.72-21-31-8.8-13.28-16.76-25.43-17.68-27-0.92-1.57-4.83-8.03-8.68-14.35-3.86-6.32-11.41-19.15-16.79-28.5-5.38-9.35-11.49-20.15-13.58-24-2.08-3.85-6.72-12.85-10.31-20-5.87-11.72-6.38-13.2-5.13-15 0.96-1.39 3.5-2.39 8.27-3.26 3.79-0.7 15.54-1.37 26.12-1.5l19.23-0.24c3.52 3.88 11.06 12.2 19.04 20.99 7.98 8.8 21 22.97 28.94 31.5 7.93 8.53 17.43 18.66 21.09 22.51 3.67 3.85 16.74 17.8 29.07 30.99 12.32 13.2 27.39 29.17 33.49 35.5 6.1 6.33 18.25 19.04 27 28.25 11.34 11.93 16.56 16.74 18.16 16.75l2.25 0.01c0.16-67.81 0.37-98.98 0.58-113 0.2-14.02 0.15-26.51-0.11-27.75-0.44-2.1-1-2.25-8.22-2.27-4.26 0-8.36-0.34-9.11-0.75-0.9-0.48-1.15-1.67-0.75-3.48 0.6-2.72 0.7-2.75 8.61-2.75 6.6 0 8.16-0.31 8.93-1.75 0.54-1.02 0.95-29 1-67 0.07-61.17-0.04-65.31-1.68-66.17-1.06-0.56-6.08-0.56-12.75-0.01-6.05 0.51-15.27 1.39-20.5 1.98-5.23 0.58-12.88 1.69-17 2.46-4.13 0.77-11.77 2.31-17 3.43-5.23 1.11-14 3.34-19.5 4.95-5.5 1.61-13.82 4.34-18.5 6.05-4.68 1.72-12.1 4.56-16.5 6.3-4.4 1.75-14.75 6.6-23 10.79-8.25 4.19-19.27 10.26-24.5 13.48-5.23 3.23-13.55 8.79-18.5 12.37-4.95 3.58-10.24 7.55-11.75 8.82-1.51 1.26-3.65 2.3-4.75 2.3-1.1 0-2.23-0.68-2.5-1.5-0.27-0.82-0.16-2.12 0.25-2.87 0.41-0.76 3.68-3.61 7.25-6.33 3.57-2.72 10.77-7.81 16-11.31 5.23-3.5 14.23-9.05 20-12.32 5.77-3.27 14.1-7.71 18.5-9.86 4.4-2.15 12.05-5.65 17-7.77 4.95-2.13 12.6-5.22 17-6.88 4.4-1.66 14.52-4.85 22.5-7.11 7.98-2.25 19.68-5.19 26-6.52 6.32-1.33 16.23-3.09 22-3.92 5.77-0.82 16.57-1.97 24-2.56 7.43-0.58 14.51-1.06 15.75-1.05h2.25l-0.5-33.5c-13.18-0.21-21.05 0.12-26 0.59zm34.65-0.5c-0.1 0.5-0.4 8-0.66 16.66-0.38 12.05-0.2 15.86 0.76 16.22 0.69 0.25 9.8 1.14 20.25 1.96 10.45 0.83 24.4 2.44 31 3.57 6.6 1.14 17.4 3.37 24 4.97 6.6 1.6 16.27 4.24 21.5 5.87 5.23 1.63 14.67 4.97 21 7.43 6.33 2.45 18.7 7.95 27.5 12.22 8.8 4.26 18.24 9.16 20.98 10.88 2.74 1.72 10.84 7.03 18 11.79 7.16 4.77 17.97 12.63 24.02 17.48 6.05 4.85 15.23 12.88 20.39 17.84 5.17 4.96 13.5 13.54 18.5 19.06 5.01 5.53 12.71 14.84 17.11 20.69 4.4 5.86 9.48 12.81 11.28 15.46 1.81 2.64 5.13 7.74 7.4 11.31 2.26 3.57 5.45 8.98 7.09 12 1.64 3.02 5 9.32 7.46 14 2.46 4.68 6.84 14.12 9.73 21 2.89 6.87 7.1 18.12 9.35 25 2.26 6.87 5.45 18.12 7.09 25 1.65 6.87 3.87 17.45 4.94 23.5 1.08 6.05 2.45 16.4 3.06 23 0.6 6.6 1.44 16.27 1.85 21.5l0.75 9.5c31.97 0.48 33.55 0.34 34.01-1.25 0.29-0.96-0.17-10.52-1.02-21.25-0.84-10.73-1.77-21.07-2.07-23-0.3-1.93-1.68-9.57-3.06-17-1.39-7.43-3.64-18-5-23.5-1.37-5.5-4.08-15.18-6.04-21.5-1.95-6.32-6.26-18.25-9.56-26.5-3.31-8.25-8.49-19.95-11.52-26-3.02-6.05-7.53-14.6-10.01-19-2.49-4.4-7.91-13.18-12.06-19.5-4.14-6.32-10.9-16-15.01-21.5-4.11-5.5-11.18-14.27-15.72-19.5-4.53-5.23-10.01-11.3-12.17-13.5-2.16-2.2-7.72-7.65-12.35-12.11-4.63-4.45-14.04-12.78-20.92-18.5-6.87-5.71-19.48-15.09-28-20.83-8.52-5.75-18.2-11.95-21.5-13.78-3.3-1.84-12.08-6.42-19.5-10.2-7.42-3.77-18.23-8.87-24-11.34-5.77-2.48-16.58-6.53-24-9.02-7.42-2.49-18.67-5.88-25-7.55-6.33-1.66-17.35-4.17-24.5-5.59-7.15-1.41-18.85-3.25-26-4.09-7.15-0.83-18.89-1.8-26.09-2.16-7.58-0.37-13.16-0.26-13.26 0.26zm-0.47 45.51c-0.42 2.97-0.64 33.3-0.48 67.4l0.3 62c17.9 0.48 18.54 0.65 19.08 2.75 0.33 1.28 0.01 2.82-0.75 3.58-0.9 0.9-3.97 1.3-9.58 1.25-7.76-0.08-8.28 0.05-8.78 2.17-0.28 1.24-0.4 33.29-0.25 71.22l0.28 68.97c13.56 2.76 20.49 5.02 24.14 6.81 3.97 1.94 8.81 5.46 12.06 8.75 2.98 3.02 6.6 7.52 8.05 10 1.44 2.48 3.61 7.43 4.81 11l2.19 6.5h137.75c0.39-13.18 0.73-18.01 1-19.25 0.36-1.6 1.22-2.25 3-2.25 1.73 0 2.81 0.77 3.5 2.5 0.55 1.37 1 6.32 1 11v8.5l129.5-0.5c0.5-10.85 0.12-19.18-0.51-25.5-0.63-6.32-1.75-15.55-2.49-20.5-0.74-4.95-2.72-15.3-4.41-23-1.68-7.7-4.67-19.18-6.63-25.5-1.97-6.32-5.68-16.9-8.24-23.5-2.57-6.6-8.29-19.2-12.71-28-4.43-8.8-10.96-20.63-14.53-26.3-3.56-5.66-9.4-14.27-12.98-19.12-3.58-4.86-11.06-14.18-16.62-20.71-5.57-6.53-15.47-17.01-22-23.3-6.54-6.29-15.93-14.66-20.88-18.6-4.95-3.94-13.5-10.32-19-14.17-5.5-3.85-15.17-10.06-21.5-13.79-6.33-3.74-15.77-8.89-21-11.45-5.23-2.57-14.45-6.72-20.5-9.23-6.05-2.51-15.27-6.02-20.5-7.81-5.23-1.78-16.25-4.96-24.5-7.06-8.25-2.11-17.92-4.33-21.5-4.94-3.58-0.61-11.23-1.76-17-2.56-5.77-0.8-16.81-1.75-24.53-2.11l-14.02-0.65zm-374.9 330.7c-0.94 0.19-2.01 1.55-2.37 3.02-0.36 1.47-0.23 4.03 0.28 5.68 0.65 2.07 1.54 2.95 2.88 2.85 1.06-0.08 8.46-1.18 16.43-2.44 7.98-1.26 14.79-2.77 15.15-3.35 0.35-0.58 0.32-2.19-0.07-3.56l-0.72-2.5c-23.14-0.03-30.63 0.12-31.58 0.3zm42.47-0.05c-2.72 0.21-3.21 0.62-3 2.5 0.23 2.07 0.77 2.25 6.75 2.31 4.94 0.05 8.9 0.96 16.5 3.79 5.5 2.06 11.01 4.39 12.25 5.19 1.36 0.88 5.83 8.84 11.34 20.21 5 10.31 10.59 21.9 12.42 25.75 1.83 3.85 6.19 13.07 9.7 20.5 3.51 7.42 7.14 14.96 8.08 16.75 0.94 1.79 2.27 3.25 2.96 3.24 0.69 0 9.35-1.32 19.25-2.93 9.9-1.62 30.15-4.98 45-7.47 14.85-2.5 42.08-7.01 60.5-10.04 18.43-3.03 42.05-6.88 52.5-8.57 10.45-1.69 21.7-3.5 25-4.01 3.3-0.52 9.44-1.51 13.64-2.21 4.2-0.69 8.02-1.65 8.5-2.11 0.48-0.48-1.58-2.9-4.64-5.45-3.02-2.53-13.38-12.5-23.02-22.15-9.63-9.65-21.11-21.52-25.5-26.37l-7.98-8.82c-75.17 0.08-98.24 0.11-99.75 0.12l-2.75 0.02c0 15.88-0.37 18.35-1.57 19.5-0.87 0.82-1.77 1.5-2 1.5-0.24 0-1.33-0.45-2.43-1-1.79-0.9-2-2-2-10.5 0-9.19-0.07-9.5-2.25-9.48-1.24 0.01-29.7-0.1-63.25-0.25-33.55-0.15-62.46-0.16-64.25-0.02zm530.56 0.08c-0.85 0.24-1.14 2.91-0.97 9 0.18 6.05-0.14 9.06-1.05 9.95-0.71 0.71-2.41 1.16-3.79 1-2.46-0.28-2.5-0.45-2.75-10.03l-0.25-9.75-137.5-0.05c-1.18 5.08-1.53 7.9-1.54 9.55 0 2.47 1.58 4.54 9.02 11.75 6.12 5.93 9.58 8.6 10.77 8.29 0.96-0.24 6.93-1.46 13.25-2.7 9.77-1.91 14.88-2.25 34-2.29 14.11-0.03 25.67 0.45 31 1.29 4.68 0.73 11.88 1.99 16 2.78 4.13 0.8 12.45 2.84 18.5 4.54 6.05 1.7 16.63 5.21 23.5 7.8 6.88 2.59 16.55 6.79 21.5 9.33 4.95 2.54 10.97 6.33 13.37 8.42 4.02 3.48 4.33 4.07 3.74 7.29-0.36 1.92-2.14 5.3-3.96 7.5-1.82 2.2-5.52 5.64-8.23 7.65-2.71 2.01-8.52 5.6-12.92 7.97-4.4 2.37-13 6.35-19.1 8.84-6.11 2.5-11.25 4.99-11.42 5.54-0.17 0.55 4.6 3.17 10.61 5.82 6 2.65 16.76 6.77 23.91 9.15 7.15 2.38 18.4 5.24 25 6.35 6.6 1.12 14.03 2.27 16.5 2.57 2.48 0.31 5.06 1.24 5.75 2.08 0.69 0.84 1.03 1.98 0.75 2.53-0.27 0.55-2.19 1.69-4.25 2.53-2.06 0.85-6.45 2.17-9.75 2.96-3.3 0.78-9.6 1.96-14 2.62-5.4 0.81-14.81 1.01-29 0.61-11.55-0.33-24.15-1.09-28-1.68-3.85-0.6-9.92-1.56-13.5-2.14-3.57-0.57-10.77-1.94-16-3.03-5.22-1.1-16.02-3.6-24-5.56-7.97-1.95-20.8-5.46-28.5-7.79-13.48-4.09-14.65-4.27-31.5-4.87-9.62-0.34-23.57-1.32-31-2.18-7.42-0.86-18.67-2.46-25-3.56-6.32-1.1-12.97-2.32-14.77-2.71l-3.27-0.7c-0.2 14.72-0.36 28.9-0.48 41-0.13 12.1 0.05 24.02 0.39 26.5l0.63 4.5c16.56 0.92 18.02 1.28 18.24 2.75 0.14 0.96-0.3 2.44-0.99 3.29-0.95 1.18-3.23 1.54-9.5 1.5l-8.25-0.04c0.03 47.66-0.08 78.82-0.23 100l-0.27 38.5c20.93-0.19 33.08-1.01 40.5-1.94 7.43-0.93 17.89-2.56 23.25-3.63 5.36-1.06 10.2-1.71 10.75-1.43 0.55 0.27 1 1.4 1 2.5 0 1.1-0.79 2.41-1.75 2.92-0.96 0.51-7.15 1.87-13.75 3.03-6.6 1.16-18.07 2.76-25.5 3.55-7.42 0.79-17.77 1.55-23 1.68-6.16 0.16-9.94 0.69-10.75 1.53-0.9 0.92-1.25 5.94-1.25 17.79v16.5c15.11 0 24.45-0.44 30.5-0.98 6.05-0.54 14.6-1.47 19-2.06 4.4-0.59 12.95-1.97 19-3.08 6.05-1.1 16.85-3.53 24-5.4 7.15-1.86 17.73-4.94 23.5-6.82 5.78-1.89 14.78-5.1 20-7.12 5.23-2.03 16.48-7.06 25-11.18 8.53-4.12 19.33-9.72 24-12.46 4.68-2.73 9.4-5.52 10.5-6.19 1.1-0.66 6.95-4.54 13-8.6 6.05-4.07 14.55-10.14 18.89-13.5 4.35-3.36 11.54-9.26 16-13.11 4.46-3.85 13.28-12.19 19.61-18.53 6.32-6.35 15.79-16.7 21.03-23 5.24-6.31 12.49-15.52 16.12-20.47 3.63-4.95 9.04-12.83 12.03-17.5 2.99-4.68 8.09-13.23 11.32-19 3.24-5.78 8.67-16.35 12.06-23.5 3.4-7.15 8.88-20.2 12.18-29 3.29-8.8 7.13-20.05 8.53-25 1.39-4.95 3.23-11.93 4.08-15.5 0.86-3.58 2.21-9.43 3.02-13 0.81-3.58 2.38-12.58 3.48-20 1.11-7.43 2.6-21.7 3.33-31.72q1.32-18.22 0.32-19.29c-0.63-0.68-6.72-1.1-16.5-1.12-8.52-0.02-15.95 0-16.5 0.04-0.57 0.04-1.34 5.79-1.8 13.33-0.44 7.29-1.45 18.32-2.25 24.51-0.8 6.19-2.14 14.74-2.99 19-0.84 4.26-2.2 10.67-3.01 14.25-0.81 3.57-2.2 9.2-3.08 12.5-0.89 3.3-2.5 8.92-3.6 12.5-1.09 3.57-3.49 10.55-5.32 15.5-1.83 4.95-5.05 13.05-7.14 18-2.1 4.95-6.9 14.85-10.68 22-3.78 7.15-8.45 15.47-10.39 18.5-1.93 3.02-6 9.32-9.02 14-3.03 4.67-8.48 12.32-12.11 17-3.63 4.67-11.04 13.45-16.46 19.5-5.42 6.05-10.49 11.34-11.25 11.75-0.77 0.41-2.09 0.19-2.94-0.5-0.85-0.69-1.53-1.81-1.5-2.5 0.02-0.69 2.12-3.39 4.67-6 2.54-2.61 8.75-9.7 13.79-15.75 5.04-6.05 11.89-14.83 15.22-19.5 3.32-4.68 8.07-11.65 10.54-15.5 2.47-3.85 7.01-11.5 10.08-17 3.07-5.5 7.57-14.28 10.01-19.5 2.43-5.23 5.68-12.65 7.21-16.5 1.54-3.85 4.49-11.95 6.56-18 2.07-6.05 4.9-15.28 6.28-20.5 1.38-5.23 3.41-14 4.51-19.5 1.11-5.5 2.49-12.93 3.08-16.5 0.59-3.58 1.53-11.68 2.08-18 0.55-6.33 1-14.99 1.01-19.25 0-5.49-0.36-7.77-1.25-7.83-0.69-0.04-29.48-0.16-63.99-0.25-34.51-0.09-63.29-0.02-63.95 0.16zm-574.17 25.09c-0.35 0.59-0.16 5.02 0.42 9.83 0.58 4.81 1.97 14.37 3.09 21.25 1.13 6.87 3.35 18.35 4.95 25.5 1.6 7.15 4.03 16.49 5.4 20.75 1.38 4.26 2.84 7.93 3.25 8.16 0.41 0.22 1.06-7.31 1.44-16.75 0.37-9.44 0.71-28.52 0.75-42.41 0.03-13.89-0.28-25.42-0.69-25.63-0.41-0.21-4.63-0.7-9.36-1.08-5.82-0.47-8.82-0.35-9.25 0.38zm352.86 81.76c-4.95 0.15-17.32 0.75-27.5 1.32-10.17 0.58-29.52 1.72-43 2.54-13.47 0.81-41.15 2.61-61.5 3.98-20.35 1.37-48.92 3.37-63.5 4.44-14.57 1.08-40 2.91-56.5 4.08-16.5 1.16-31.01 2.3-32.25 2.54-1.24 0.23-2.25 1.09-2.25 1.92 0 0.82 1.9 5.44 4.21 10.25 2.32 4.81 6.22 12.35 8.68 16.75 2.45 4.4 7.37 12.5 10.92 18 3.56 5.5 9.19 13.6 12.52 18 3.33 4.4 8.49 10.92 11.46 14.5 2.97 3.57 10.92 12.12 17.66 19 6.74 6.87 17.54 17 24 22.5 6.46 5.5 14.74 12.12 18.4 14.72 3.66 2.6 12.28 8.28 19.15 12.64 6.88 4.35 18.58 11.08 26 14.96 7.43 3.87 19.13 9.27 26 11.99 6.88 2.72 17.45 6.54 23.5 8.48 6.05 1.94 16.63 4.89 23.5 6.57 6.88 1.67 16.78 3.75 22 4.62 5.23 0.87 16.03 2.23 24 3.03 7.98 0.8 17.54 1.46 21.25 1.47 3.71 0.01 6.76-0.09 6.77-0.23 0.01-0.14 0.3-30.18 0.65-66.75 0.36-36.58 0.35-67.74-0.01-69.25-0.65-2.72-0.76-2.75-8.66-2.75-7 0-8.12-0.25-9-2-0.71-1.42-0.63-2.45 0.25-3.55 0.91-1.12 3.08-1.53 8-1.5 3.71 0.03 7.43-0.18 8.25-0.45 1.29-0.43 1.5-5.26 1.52-35.25 0.01-26.73-0.28-35.04-1.25-36.02-0.7-0.69-1.94-1.16-2.77-1.04-0.82 0.12-5.55 0.34-10.5 0.49zm-315 20.97c-1.65 0.2-5.39 0.61-8.31 0.92-4.13 0.45-5.3 0.95-5.25 2.25 0.04 0.92 1.44 5.05 3.11 9.18 1.68 4.12 6.23 13.8 10.11 21.5 3.88 7.7 9.32 17.82 12.09 22.5 2.77 4.67 5.8 9.62 6.73 11 0.93 1.37 4.1 6.1 7.03 10.5 2.93 4.4 8.73 12.27 12.88 17.5 4.16 5.22 12.58 15.12 18.71 22 6.13 6.87 15.81 16.79 21.52 22.04 5.71 5.24 15.11 13.35 20.88 18.02 5.78 4.67 11.45 9.15 12.62 9.96 1.16 0.82 5.44 3.77 9.5 6.58 4.06 2.8 13.23 8.63 20.38 12.95 7.15 4.32 19.75 11.09 28 15.05 8.25 3.95 18.6 8.62 23 10.38 4.4 1.77 10.93 4.23 14.5 5.48 3.58 1.26 8.75 3.02 11.5 3.92 2.75 0.9 6.35 2.06 8 2.58 1.65 0.52 6.38 1.82 10.5 2.89 4.13 1.07 11.78 2.85 17 3.95 5.23 1.11 11.98 2.49 15 3.08 3.03 0.59 11.13 1.77 18 2.62 6.88 0.86 18.91 1.88 26.75 2.28l14.26 0.72c-0.01-35.35-0.03-35.51-2.26-35.99-1.24-0.27-5.62-0.49-9.75-0.51-4.12-0.01-13.35-0.7-20.5-1.53-7.15-0.83-17.72-2.39-23.5-3.47-5.77-1.08-13.2-2.58-16.5-3.33-3.3-0.76-10.5-2.62-16-4.13-5.5-1.51-14.95-4.49-21-6.62-6.05-2.13-15.95-6.03-22-8.67-6.05-2.64-16.85-7.88-24-11.64-7.15-3.77-20.65-11.98-30-18.26-9.35-6.27-21.49-15.11-26.97-19.63-5.49-4.52-15.62-13.85-22.5-20.72-6.89-6.88-15.26-15.65-18.59-19.5-3.34-3.85-8.78-10.6-12.1-15-3.31-4.4-8.43-11.6-11.37-16-2.94-4.4-8.41-13.18-12.14-19.5-3.74-6.33-9.4-17.02-12.57-23.76l-5.76-12.25c-13.95 0.24-19.35 0.47-21 0.66z"/>
		<path id="Path 5" fill-rule="evenodd" class="s1" d="m400 36.91l5.5 0.59 0.5 33.5-10.5 0.63 11.5 0.37v-36l-12.5 0.33zm13.02 0.83q0.01 1.74 0.75 0.57c0.4-0.65 3.43-1.36 6.73-1.56l6-0.38c-12.59-0.35-13.5-0.14-13.48 1.37zm0.33 11.25c0 4.68 0.17 6.48 0.38 4 0.21-2.47 0.21-6.3 0-8.5-0.21-2.2-0.38-0.17-0.38 4.5zm71.15-4.44c3.3 0.75 6.67 1.32 7.5 1.28 0.83-0.04-0.75-0.65-3.5-1.36-2.75-0.71-6.13-1.28-7.5-1.28-1.38 0.01 0.2 0.62 3.5 1.36zm-170.5 3.97c-4.13 1.28-6.82 2.35-6 2.38 0.82 0.02 5.1-1.04 9.5-2.36 4.4-1.33 7.1-2.39 6-2.37-1.1 0.02-5.38 1.08-9.5 2.35zm-30.5 9.28c-3.85 1.41-6.55 2.71-6 2.88 0.55 0.18 4.37-1.01 8.5-2.63 4.12-1.61 6.82-2.91 6-2.88-0.82 0.04-4.65 1.22-8.5 2.63zm-29.5 12.48c-8.52 4.02-19.89 9.65-25.25 12.51-5.36 2.86-9.64 5.44-9.5 5.74 0.14 0.29 3.18-1.14 6.75-3.2 3.57-2.05 14.15-7.38 23.5-11.84 9.35-4.46 18.12-8.61 19.5-9.23 1.37-0.62 2.05-1.17 1.5-1.21-0.55-0.04-7.98 3.22-16.5 7.23zm316.5 3.58c9.9 4.85 20.48 10.26 23.5 12.02 3.02 1.75 5.61 2.95 5.75 2.65 0.14-0.29-2.56-2.07-6-3.94-3.44-1.88-11.2-5.88-17.25-8.9-6.05-3.02-13.7-6.67-17-8.12-3.3-1.44-6.23-2.61-6.5-2.58-0.27 0.03 7.6 4.02 17.5 8.87zm-157.72-2.67c0.12 0.44 4.83 1.09 10.47 1.44 5.64 0.34 10.92 0.38 11.75 0.07 0.83-0.3-1.2-0.62-4.5-0.71-3.3-0.09-8.69-0.49-11.97-0.88-3.29-0.4-5.87-0.36-5.75 0.08zm-44.78 2.85c-2.16 0.48-0.63 0.57 4 0.23 4.12-0.29 7.69-0.7 7.92-0.91 0.23-0.2-1.57-0.31-4-0.24-2.43 0.08-5.99 0.49-7.92 0.92zm71-0.7c0.27 0.22 4.33 0.64 9 0.94 6.18 0.4 7.27 0.32 4-0.29-2.48-0.47-6.52-0.89-9-0.95-2.48-0.06-4.27 0.08-4 0.3zm-34.75 4.68c1.64 0.91 1.75 5.09 1.74 65.72 0 35.62 0.23 64.98 0.53 65.25 0.29 0.28 0.52-29.31 0.51-65.75l-0.03-66.25c-4.24 0.06-4.3 0.17-2.75 1.03zm8.9 2.22c0.14 2.94 0.18 2.99 0.5 0.5l0.35-2.75 18.5-0.58-19.5-0.42zm-45.65-0.76c-4.4 0.68-6.87 1.27-5.5 1.31 1.38 0.04 7.45-0.52 13.5-1.24 7.7-0.92 9.35-1.31 5.5-1.31-3.02 0-9.1 0.56-13.5 1.24zm82.5 0.56c2.48 0.44 5.85 0.78 7.5 0.75 2.21-0.03 1.82-0.26-1.5-0.85-2.47-0.44-5.85-0.78-7.5-0.75-2.21 0.04-1.82 0.26 1.5 0.85zm43.5 2.54c2.75 0.83 11.98 3.74 20.5 6.47 8.53 2.73 20.68 7.23 27 10.01 6.33 2.77 12.18 5.27 13 5.54 0.83 0.28-1.2-0.94-4.5-2.69-3.3-1.76-11.17-5.21-17.5-7.67-6.32-2.45-17.12-6.16-24-8.24-6.87-2.07-14.07-4.03-16-4.35q-3.43-0.56 1.5 0.93zm-156 2.38c-3.85 0.99-6.32 1.84-5.5 1.88 0.83 0.04 4.88-0.76 9-1.78 4.13-1.02 6.6-1.87 5.5-1.88-1.1-0.01-5.15 0.79-9 1.78zm-37.5 4.69c-4.12 1.37-7.27 2.68-7 2.9 0.28 0.22 4.33-0.9 9-2.5 4.68-1.6 7.83-2.9 7-2.9-0.82 0-4.87 1.13-9 2.5zm-85 1.07c-1.37 0.89-7 4.57-12.5 8.17-5.5 3.59-13.82 9.44-18.5 12.98-4.67 3.55-11.65 9.14-15.5 12.43-3.85 3.29-10.76 9.41-15.36 13.59-4.6 4.18-13.02 12.78-18.7 19.1-5.68 6.33-13.74 15.78-17.91 21-4.16 5.23-11.54 15.35-16.4 22.5-4.86 7.15-11.69 17.95-15.17 24-3.48 6.05-9.39 17.42-13.14 25.25-3.75 7.84-6.81 14.59-6.79 15 0.01 0.42 3.96-7.12 8.78-16.75 4.82-9.62 10.29-20.2 12.17-23.5 1.87-3.3 7.29-11.85 12.04-19 4.74-7.15 11.71-17.05 15.48-22 3.77-4.95 9.76-12.37 13.32-16.5 3.55-4.12 8.59-9.75 11.18-12.5 2.59-2.75 9.17-9.28 14.61-14.52 5.44-5.24 13.72-12.7 18.39-16.58 4.68-3.88 12.78-10.18 18-14.01 5.23-3.82 13.33-9.38 18-12.35 4.68-2.97 9.16-6 9.96-6.72 0.81-0.72 1.26-1.29 1-1.26-0.25 0.02-1.58 0.78-2.96 1.67zm389.5 0.96c0.55 0.55 7.41 5.35 15.25 10.66 7.84 5.31 14.03 9.2 13.75 8.65-0.27-0.55-5.34-4.28-11.25-8.28-5.91-4.01-12.55-8.36-14.75-9.66-2.2-1.31-3.55-1.92-3-1.37zm-329.17 7.66c-5.05 2.29-9.55 4.52-10 4.98-0.46 0.45 3-0.82 7.67-2.84 4.68-2.01 9.85-4.26 11.5-4.99 1.65-0.73 2.33-1.33 1.5-1.31-0.82 0.01-5.63 1.88-10.67 4.16zm2.17 5.02c-5.5 2.39-14.16 6.43-19.25 8.99-5.09 2.55-9.14 4.87-9 5.14 0.14 0.28 5.88-2.34 12.75-5.81 6.88-3.48 15.76-7.53 19.75-9 3.99-1.48 7.25-2.91 7.25-3.19 0-0.27-0.34-0.49-0.75-0.48-0.41 0.01-5.25 1.97-10.75 4.35zm-18 2.27c-1.65 0.85-8.4 4.52-15 8.14-6.6 3.62-16.72 9.73-22.5 13.58-5.77 3.85-13.42 9.22-17 11.95-3.57 2.72-6.84 5.56-7.25 6.32-0.41 0.75 1.61-0.55 4.5-2.9 2.89-2.35 9.53-7.23 14.75-10.85 5.23-3.62 13.1-8.75 17.5-11.39 4.4-2.65 12.95-7.44 19-10.64 6.05-3.2 10.55-5.8 10-5.79-0.55 0.01-2.35 0.72-4 1.58zm296.5-1.28c0.28 0.22 3.31 1.81 6.75 3.52 3.44 1.72 6.25 2.9 6.25 2.62 0-0.27-2.7-1.85-6-3.5-3.3-1.65-6.34-3.01-6.75-3.02-0.41-0.02-0.52 0.15-0.25 0.38zm-8 2.01c0.28 0.29 4.55 2.51 9.5 4.93 4.95 2.42 14.18 7.46 20.5 11.2 6.33 3.74 16 9.95 21.5 13.8 5.5 3.86 14.05 10.23 19 14.17 4.95 3.95 14.34 12.31 20.88 18.6 6.53 6.29 16.43 16.78 22 23.31 5.56 6.53 13.05 15.84 16.62 20.7 3.58 4.85 9.42 13.46 12.98 19.13 3.57 5.66 10.11 17.49 14.54 26.29 4.43 8.8 10.06 21.06 12.51 27.23 2.46 6.18 4.58 11.01 4.72 10.75 0.14-0.26-1.84-5.76-4.39-12.23-2.56-6.46-7.95-18.27-11.98-26.25-4.03-7.97-10.3-19.22-13.94-25-3.63-5.77-9.15-14.05-12.27-18.38-3.12-4.34-10.22-13.34-15.77-20-5.56-6.67-15.91-17.76-23-24.66-7.1-6.9-17.4-16.16-22.9-20.57-5.5-4.42-14.95-11.42-21-15.57-6.05-4.15-15.72-10.25-21.5-13.55-5.77-3.31-13.42-7.48-17-9.27-3.57-1.79-7.62-3.68-9-4.2-1.37-0.52-2.27-0.71-2-0.43zm21.96 5.16c0.02 0.26 3.3 2.22 7.29 4.36 3.99 2.13 13.1 7.82 20.25 12.65 7.15 4.82 16.15 11.25 20 14.29 3.85 3.04 10.38 8.48 14.5 12.09 4.13 3.61 9.92 8.81 12.87 11.57 2.96 2.76 10.34 10.64 16.4 17.51 6.07 6.88 14.22 16.69 18.13 21.8 3.91 5.11 7.21 9.27 7.35 9.25 0.14-0.03-0.09-0.69-0.5-1.47-0.41-0.78-5.02-6.95-10.25-13.72-5.22-6.78-16.92-19.8-26-28.95-9.07-9.14-21.45-20.55-27.5-25.36-6.05-4.8-16.86-12.62-24.02-17.39-7.16-4.76-15.26-10.08-18-11.83-2.74-1.74-6.23-3.64-7.77-4.22-1.53-0.58-2.77-0.84-2.75-0.58zm65.2-0.11c-0.09 0.32 4.9 4.73 11.09 9.79 6.19 5.06 15.27 13.05 20.19 17.75 4.92 4.7 9.99 9.67 11.26 11.04 1.28 1.38 2.55 2.28 2.83 2 0.28-0.27-5.01-5.7-11.76-12.06-6.75-6.36-15.2-14.01-18.77-17-3.58-2.99-8.35-6.94-10.6-8.77-2.24-1.83-4.16-3.07-4.24-2.75zm-394.16 10.43c-3.57 2.1-9.87 5.98-14 8.63-4.12 2.66-11.89 8.13-17.25 12.17-5.36 4.05-9.3 7.35-8.75 7.35 0.55 0 2.24-1.03 3.75-2.3 1.51-1.27 6.8-5.24 11.75-8.82 4.95-3.58 13.73-9.37 19.5-12.86 5.78-3.5 10.93-6.73 11.45-7.19 0.52-0.45 0.75-0.82 0.5-0.81-0.25 0.01-3.37 1.73-6.95 3.83zm448.8 41.15c5.02 5.78 12.34 14.78 16.28 20 3.93 5.23 10.86 15.13 15.41 22 4.54 6.88 9.89 15.54 11.88 19.25 2 3.72 3.86 6.75 4.13 6.75 0.28 0-0.47-1.91-1.66-4.25-1.19-2.33-5.01-8.86-8.5-14.5-3.49-5.63-9.14-14.18-12.56-19-3.42-4.81-10.58-14.15-15.9-20.75-5.33-6.6-11.6-13.8-13.94-16-2.35-2.2-0.16 0.73 4.86 6.5zm-277.38 25.5c0 11.55 0.15 16.05 0.33 10 0.17-6.05 0.17-15.5 0-21-0.18-5.5-0.33-0.55-0.33 11zm-208.42-12.76c3.58 0.2 9.65 0.2 13.5 0 3.85-0.19 0.93-0.35-6.5-0.35-7.42 0-10.57 0.16-7 0.35zm25.09 5c2.52 2.62 15.11 16.24 27.98 30.26 12.86 14.03 33.5 36.3 45.87 49.5 12.36 13.2 26.57 28.28 31.58 33.5 5 5.23 13.12 13.78 18.05 19 4.92 5.23 17.72 18.63 28.44 29.79 10.72 11.16 20.39 20.53 21.49 20.83 1.1 0.29 2.29 0.16 2.64-0.29 0.35-0.45 0.9-32.33 1.22-70.83 0.32-38.5 0.37-69.77 0.12-69.5-0.25 0.28-0.64 11.98-0.87 26-0.22 14.03-0.45 45.19-0.51 69.25l-0.1 43.75c-3.85-0.01-9.07-4.82-20.41-16.76-8.75-9.2-20.9-21.92-27-28.24-6.1-6.33-21.17-22.31-33.49-35.5-12.33-13.2-25.4-27.15-29.07-31-3.66-3.85-13.16-13.98-21.09-22.51-7.94-8.52-20.77-22.47-28.51-31-7.74-8.52-15.17-16.74-16.5-18.26-1.34-1.53-2.88-2.77-3.43-2.76-0.55 0 1.07 2.15 3.59 4.77zm-24.59-0.99c3.85 0.19 9.7 0.19 13-0.01 3.3-0.19 0.15-0.35-7-0.35-7.15 0-9.85 0.16-6 0.36zm-32.5 4.75c0.02 0.55 3.44 7.53 7.6 15.5 4.15 7.98 8.02 14.95 8.59 15.5 0.57 0.55-2.69-6.2-7.24-15-4.55-8.8-8.44-16.22-8.64-16.5-0.2-0.27-0.34-0.05-0.31 0.5zm258.4 28.74c1.23 0.82 1.67 1.88 1.25 3.01-0.45 1.22-1.79 1.77-4.4 1.82-2.06 0.04-6.22 0.15-9.25 0.25l-5.5 0.18-0.5 144.5c7.38-0.23 7.41-0.25 4.5-0.88l-3-0.64c-0.43-106.93-0.31-138.99-0.03-140.23 0.5-2.11 1.01-2.24 8.47-2.12 5.45 0.09 8.45-0.3 9.58-1.25 1.05-0.88 1.43-2.19 1.06-3.63-0.32-1.24-1.36-2.25-2.33-2.26-1.59-0.02-1.57 0.1 0.15 1.25zm-43.33 2.51c-0.04 1.24 0.61 2.48 1.43 2.75 0.83 0.28 4.88 0.5 9 0.5 6.31 0 7.57 0.28 7.94 1.75q0.47 1.9 0.24-0.25c-0.18-1.78-1.12-2.05-8.59-2.5-7.21-0.43-8.51-0.78-9.17-2.5-0.74-1.89-0.78-1.88-0.85 0.25zm308.01 12.75c4.44 7.15 8.3 13.23 8.57 13.5 0.27 0.28 0.16-0.4-0.25-1.5-0.41-1.1-2.4-4.47-4.43-7.5-2.02-3.02-4.4-6.85-5.27-8.5-0.88-1.65-2.74-4.35-4.14-6-1.4-1.65 1.08 2.85 5.52 10zm-506.11-11.25c0.02 0.42 3.29 6.4 7.28 13.3 3.99 6.9 7.36 12.52 7.5 12.5 0.14-0.03-0.27-1.06-0.9-2.3-0.64-1.23-3.83-6.97-7.1-12.75-3.26-5.77-6.13-10.72-6.37-11-0.24-0.27-0.42-0.16-0.41 0.25zm554.79 26.2c3.16 6.3 5.85 11.25 5.99 11 0.14-0.24-2.22-5.4-5.25-11.45-3.02-6.05-5.72-11-5.99-11-0.27 0 2.09 5.16 5.25 11.45zm-536.74 6.3c1.8 3.17 3.91 6.43 4.69 7.25 0.79 0.83-0.31-1.76-2.44-5.75-2.13-3.98-4.25-7.25-4.7-7.25-0.45 0 0.65 2.59 2.45 5.75zm544.49 9.75c0.33 1.1 2.48 6.6 4.79 12.21 2.31 5.62 4.32 10.12 4.47 10 0.16-0.11-0.81-3.13-2.15-6.71-1.33-3.57-3.61-8.97-5.06-12-1.46-3.02-2.38-4.6-2.05-3.5zm-36.01 6c1.47 3.3 4.17 9.6 6.01 14 1.84 4.4 5.57 14.75 8.28 23 2.72 8.25 6.15 20.18 7.62 26.5 1.47 6.33 3.75 17.58 5.06 25 1.31 7.43 2.42 12.38 2.46 11 0.05-1.37-0.84-7.67-1.98-14-1.13-6.32-3.4-17.12-5.05-24-1.64-6.87-4.83-18.12-7.08-25-2.26-6.87-6.76-18.8-10.01-26.5-3.25-7.7-6.37-14.45-6.94-15-0.57-0.55 0.17 1.7 1.63 5zm-500.37-2.25c0.84 1.24 3.52 5.57 5.95 9.63 2.43 4.06 4.76 7.55 5.17 7.75 0.41 0.21-1.84-4.13-5.01-9.63-3.17-5.5-6.19-10-6.71-10-0.51 0-0.24 1.02 0.6 2.25zm-157.6 19.48c-1.61 4.27-4.18 11.82-5.73 16.77-1.55 4.95-2.79 9.45-2.75 10 0.03 0.55 2.63-6.87 5.79-16.5 3.15-9.62 5.7-17.62 5.66-17.77-0.03-0.15-1.37 3.22-2.97 7.5zm170.53 1.27c0.71 1.38 4.14 6.89 7.62 12.25 3.48 5.37 6.55 9.75 6.82 9.75 0.28 0-2.71-5.06-6.63-11.25-3.92-6.18-7.58-11.7-8.12-12.25-0.55-0.55-0.41 0.13 0.31 1.5zm533.15 0.25c0.29 0.69 2.13 6.43 4.1 12.75 1.96 6.33 4.69 16 6.07 21.5 1.37 5.5 3.5 15.4 4.72 22 1.23 6.6 2.41 11.55 2.62 11 0.22-0.55-0.55-5.95-1.71-12-1.16-6.05-3.22-15.5-4.59-21-1.37-5.5-4.2-15.73-6.31-22.75-2.1-7.01-4.18-12.75-4.62-12.75-0.44 0-0.57 0.57-0.28 1.25zm-37.68 15.75c0.28 1.38 2.05 7.45 3.94 13.5 1.89 6.05 3.43 10.1 3.42 9-0.01-1.1-1.78-7.17-3.93-13.5-2.16-6.32-3.7-10.37-3.43-9zm-479.95 8.25c0.42 0.69 4.6 6.88 9.27 13.75 4.68 6.88 10.56 15.36 13.08 18.85 2.51 3.49 10.49 14.29 17.71 24 7.23 9.71 17.02 22.38 21.74 28.15 4.73 5.78 8.6 10.84 8.61 11.25 0.01 0.42-21.36 0.75-47.49 0.75h-47.5l-0.58-20.5-0.42 21.5c75.95 0 97.99-0.33 97.97-0.75-0.01-0.41-2.63-3.9-5.82-7.75-3.19-3.85-9.83-12.17-14.77-18.5-4.93-6.32-14.37-18.92-20.98-28-6.6-9.07-16.15-22.68-21.2-30.25-5.06-7.56-9.47-13.75-9.8-13.75-0.33 0-0.25 0.57 0.18 1.25zm-197.08 9.78c-1.1 3.82-1.77 7.16-1.5 7.43 0.28 0.27 1.25-2.69 2.16-6.57 0.91-3.87 1.59-7.22 1.5-7.42-0.09-0.2-1.06 2.75-2.16 6.56zm307 1.97c3.85 3.86 7.23 7.02 7.5 7.02 0.28 0-2.51-3.15-6.2-7.01-3.68-3.85-7.06-7.01-7.5-7.02-0.44 0 2.35 3.15 6.2 7.01zm377.8 7c0.31 1.38 1.59 7.45 2.83 13.5 1.25 6.05 2.41 10.55 2.6 10 0.18-0.55-0.83-6.4-2.25-13-1.42-6.6-2.85-12.22-3.17-12.5-0.33-0.27-0.33 0.63-0.01 2zm-688.59 8.79c-0.98 4.79-1.66 8.81-1.5 8.92 0.16 0.12 1.07-3.61 2.01-8.28 0.95-4.67 1.63-8.69 1.5-8.92-0.12-0.24-1.02 3.49-2.01 8.28zm333.79 8.21c4.4 4.41 8.23 8.02 8.5 8.02 0.28 0-2.97-3.6-7.2-8.01-4.24-4.4-8.07-8.01-8.5-8.01-0.44-0.01 2.8 3.59 7.2 8zm-298.3-2.75c-0.56 0.69-1.51 3.95-2.11 7.25-0.61 3.3-1.05 6.9-0.99 8 0.07 1.1 0.76-1.6 1.55-6 0.91-5.1 2.04-8.46 3.14-9.26 0.94-0.7 1.2-1.26 0.57-1.25-0.62 0.01-1.59 0.58-2.16 1.26zm-38.94 13.56c-0.68 4.23-1.45 11.07-1.71 15.19l-0.47 7.5c1.43-10.07 2.34-16.73 2.95-21.3 0.61-4.57 0.96-8.48 0.79-8.69-0.18-0.22-0.88 3.07-1.56 7.3zm697.91-0.31c-0.03 1.65 0.32 4.8 0.77 7 0.72 3.48 0.84 3.61 0.89 1 0.03-1.65-0.32-4.8-0.77-7-0.72-3.48-0.84-3.61-0.89-1zm42.36 5.5c0.42 3.58 1.31 13.03 1.98 21 0.71 8.45 1.28 12.1 1.36 8.75 0.07-3.16-0.57-12.38-1.43-20.5-0.86-8.11-1.81-14.97-2.11-15.25-0.31-0.27-0.21 2.43 0.2 6zm-700.01 1.5c-0.33 3.85-0.39 7.23-0.13 7.5 0.26 0.28 0.79-2.57 1.18-6.33 0.39-3.75 0.45-7.13 0.14-7.5-0.32-0.36-0.85 2.48-1.19 6.33zm-6.1 3.5c-0.37 3.58-0.47 7.18-0.21 8 0.25 0.83 0.81-1.83 1.25-5.89 0.43-4.07 0.53-7.67 0.21-8-0.32-0.34-0.89 2.32-1.25 5.89zm324.58 1.5c3.58 3.59 6.73 6.52 7 6.52 0.28 0-2.29-2.93-5.69-6.51-3.41-3.58-6.56-6.51-7-6.52-0.45 0 2.12 2.93 5.69 6.51zm43.5 4.9c2.75 1.87 6.66 5.13 8.69 7.25 2.03 2.12 5.29 6.55 7.26 9.85 1.97 3.3 3.56 5.55 3.54 5-0.03-0.55-1.36-3.25-2.97-6-1.61-2.75-4.97-7.13-7.47-9.75-2.5-2.61-6.35-5.87-8.55-7.25-2.2-1.37-4.34-2.5-4.75-2.5-0.41 0 1.5 1.53 4.25 3.4zm304.22 8.1c0.3 6.05 0.72 11.23 0.94 11.5 0.22 0.28 0.34-2.42 0.28-6-0.06-3.57-0.48-8.75-0.94-11.5-0.55-3.36-0.64-1.39-0.28 6zm-674.17 10.75l-0.55 14.75c-25.49 0.03-32.93-0.38-33.5-0.94-0.58-0.56-0.93-6.14-0.82-13.27l0.17-12.29c-1.31 20.15-1.5 26.34-1.27 26.75 0.23 0.42 8.41 0.76 18.17 0.76h17.75c1.22-22.87 1.35-29.73 1.09-30.01-0.27-0.27-0.74 6.14-1.04 14.25zm5.66 4l-0.21 11.75h135l-0.39-21.5-1.11 20-132.5 0.5-0.57-22.5zm525.57 0.5l-0.29 9.75-137.5 0.5c-1.97-4.47-1.97-4.47-1.74-2l0.24 2.5 140.5 0.5c0-16.27-0.2-21-0.46-21-0.26 0-0.59 4.39-0.75 9.75zm7.42 1.5l-0.21 9.75h132l-0.37-19.5-1.13 18-129.5 0.5-0.58-18.5zm136.95 4l-0.16 5.75 36.5-0.5 0.48-5c-2.47 4.58-2.64 4.6-18.98 4.3l-16.5-0.3-1.18-10zm-670.16 15.25c0 3.31 0.18 3.5 3.25 3.4 2.99-0.09 3.05-0.15 0.75-0.79-1.57-0.43-2.59-1.51-2.75-2.9-0.21-1.82 0.32-2.27 3-2.55 3.12-0.32 3.11-0.34-0.5-0.5-3.65-0.15-3.75-0.06-3.75 3.34zm57-2.75c13.47 0.16 35.07 0.16 48 0 12.92-0.16 1.9-0.28-24.5-0.28-26.4 0-36.98 0.12-23.5 0.28zm74.75-0.11c2.15 0.35 2.25 0.79 2.25 9.86 0 8.5 0.21 9.61 2 10.5 1.36 0.68 2.56 0.66 3.75-0.07 1.57-0.97 1.54-1.02-0.25-0.5-1.1 0.32-2.58 0.02-3.3-0.67-0.88-0.86-1.28-4.2-1.25-10.51l0.05-9.25c-5.02 0.25-5.1 0.34-3.25 0.64zm9.46 9.11l0.2 9.75 0.59-18.5c5.23-0.66 5.18-0.71 2.25-0.85l-3.25-0.15zm30.79-9c12.38 0.16 32.85 0.16 45.5 0 12.65-0.16 2.53-0.29-22.5-0.29-25.02 0-35.37 0.13-23 0.29zm80 8.48c4.68 5.09 16.38 17.16 26 26.82 9.63 9.65 19.98 19.66 23 22.22 4.52 3.83 5.23 4.85 4 5.68-1.23 0.84-1.09 1.03 0.75 1.04 1.24 0.01 2.45-0.32 2.68-0.74 0.24-0.41-2.31-3-5.67-5.75-3.35-2.75-12.44-11.15-20.18-18.66-7.74-7.52-19.25-19.53-25.58-26.69-6.32-7.17-11.95-13.06-12.5-13.1-0.55-0.04 2.83 4.09 7.5 9.18zm135.14-6.48c0.11 2.27 0.2 2.36 0.5 0.5l0.36-2.25h138c0.45 17.31 0.82 19.41 2 19.67 0.83 0.18 0.94 0.11 0.25-0.17-0.88-0.35-1.25-3.43-1.25-10.5v-10h-140zm145.88 6.5c0.01 6.06-0.42 9.75-1.25 10.7-1.11 1.27-1.04 1.27 0.53 0 1.49-1.2 1.79-2.95 1.75-10.2-0.03-6.14 0.33-8.87 1.2-9.17 0.69-0.23 0.47-0.45-0.5-0.5-1.54-0.07-1.74 0.99-1.73 9.17zm31.98-8.5c14.03 0.16 37.2 0.16 51.5 0 14.3-0.15 2.83-0.28-25.5-0.28-28.32 0-40.02 0.13-26 0.28zm97.7 0.02c0.74 0.45 1.33 4.17 1.55 9.73l0.34 9c0.39-18.45 0.23-19.5-1.34-19.48q-1.75 0.01-0.55 0.75zm6.91 11.98c-0.36 7.02-0.86 15.68-1.1 19.25-0.38 5.73-0.33 5.96 0.41 2 0.47-2.47 1.18-10.8 1.59-18.5 0.45-8.47 1.19-14.29 1.87-14.73q1.08-0.73-0.49-0.75c-1.36-0.01-1.71 1.94-2.28 12.73zm14.89-12.01c2.75 0.2 7.48 0.2 10.5 0 3.03-0.2 0.78-0.37-5-0.37-5.77 0-8.25 0.17-5.5 0.37zm19.71 0.5c1.1 0.81 1.84 3.04 2.07 6.26 0.35 4.78 0.37 4.73 0.54-1.25 0.17-5.86 0.05-6.25-2.07-6.26-2.04-0.02-2.09 0.09-0.54 1.25zm-318.21 8.02c-0.48 3.63-0.17 4.09 9 13.3l9.5 9.55 7-2.1c-6.78 0.91-7.53 0.41-15.74-7.78-7.78-7.77-8.77-9.17-9-12.73l-0.27-4zm-0.99 9.25c6.32 6.33 11.72 11.51 12 11.51 0.27 0-4.55-5.18-10.72-11.51-6.17-6.33-11.57-11.51-12-11.51-0.43 0 4.39 5.18 10.72 11.51zm-425.94-7.25c-0.06 2.7 0.01 2.74 4.69 2.12 2.61-0.35 4.97-0.86 5.25-1.14 0.27-0.28-1.41-0.22-3.75 0.13-3.77 0.56-4.36 0.38-5.19-1.61-0.9-2.18-0.94-2.16-1 0.5zm16.44-0.77c-3.3 0.69-5.1 1.29-4 1.33 1.1 0.03 5.15-0.53 9-1.26 3.85-0.73 5.65-1.33 4-1.33-1.65 0-5.7 0.56-9 1.26zm55 2.29c7.37 3.57 8.2 4.28 10.5 9.03 1.37 2.84 2.61 4.95 2.75 4.68 0.14-0.27-0.99-2.85-2.5-5.73-2.3-4.39-3.65-5.69-8.25-7.89-3.03-1.45-6.63-2.93-8-3.3-1.38-0.36 1.1 1.08 5.5 3.21zm674.19 14.23c-0.4 6.87-0.52 12.72-0.26 13 0.26 0.27 0.77-4.23 1.12-10 0.36-5.78 0.48-11.63 0.27-13-0.22-1.38-0.72 3.12-1.13 10zm-41.99 3.5c-0.38 5.5-0.49 10.22-0.24 10.5 0.25 0.27 0.63-3.37 0.85-8.09 0.23-4.72 0.34-9.45 0.25-10.5-0.09-1.05-0.47 2.59-0.86 8.09zm-683.2-7.78c1.65 0.22 4.8 0.22 7 0 2.2-0.21 0.85-0.39-3-0.4-3.85 0-5.65 0.18-4 0.4zm-20.52 3.53c-0.01 2.04 0.1 2.09 1.25 0.55 0.7-0.93 2.84-1.87 4.77-2.09 2.94-0.33 2.74-0.42-1.25-0.55-4.3-0.15-4.75 0.05-4.77 2.09zm15.02-0.34l5.5 0.59c0 38.21 0.34 49.13 0.75 48.9 0.41-0.22 0.75-11.43 0.75-24.9 0-20.89-0.22-24.58-1.5-25-0.83-0.28-3.64-0.43-6.25-0.34l-4.75 0.16zm473.5-0.17c4.4 0.19 11.37 0.19 15.5 0 4.12-0.18 0.52-0.34-8-0.34-8.53 0-11.9 0.16-7.5 0.34zm-25 1.81c-5.78 1.29-5.81 1.32-1 0.75 2.75-0.32 7.92-0.91 11.5-1.3l6.5-0.72c-8.53-0.05-13.7 0.54-17 1.27zm-378.23 1.2c0.26 0.41 8 16.72 17.2 36.25 9.2 19.52 17.02 35.87 17.38 36.33 0.36 0.46 3.35 0.37 6.65-0.19l6-1.03c-11.39 0.88-11.53 0.83-13.21-2.36-0.94-1.79-4.58-9.33-8.09-16.75-3.51-7.43-8.1-17.1-10.2-21.5-2.1-4.4-6.33-13.29-9.41-19.75-3.07-6.46-5.86-11.75-6.19-11.75-0.33 0-0.39 0.34-0.13 0.75zm-84.06 5.25c-0.02 1.92 0.32 5.75 0.74 8.5 0.76 4.87 0.78 4.9 0.84 1 0.03-2.2-0.3-6.03-0.74-8.5-0.74-4.14-0.8-4.22-0.84-1zm448.39 0.75c-0.28 0.41 3.18 4.35 7.7 8.75l8.2 8c-13.73-13.99-15.57-16.45-14.5-16.82 0.82-0.29 0.96-0.56 0.3-0.6-0.66-0.04-1.43 0.26-1.7 0.67zm2.13 8.49c4.52 4.54 8.23 8.71 8.22 9.26 0 0.55 0.79 1.1 1.77 1.22 1.04 0.13-2.08-3.74-7.43-9.25-5.07-5.21-9.57-9.47-10-9.48-0.44 0 2.91 3.71 7.44 8.25zm255.04 6.78c-0.95 6.31-1.62 11.58-1.5 11.69 0.13 0.12 1.05-3.93 2.05-9 1.01-5.06 1.68-10.33 1.5-11.69-0.17-1.37-1.1 2.68-2.05 9zm-128.77-9.65c0.27 0.24 4.55 1.99 9.5 3.89 4.95 1.91 11.92 4.94 15.5 6.75 3.57 1.8 8.3 4.43 10.5 5.83 2.2 1.4 5.02 3.47 6.28 4.6 1.25 1.14 2.27 2.96 2.27 4.06-0.01 1.1-1.32 4.02-2.92 6.5-1.61 2.47-4.65 5.85-6.76 7.5-2.11 1.65-5.87 4.31-8.35 5.91-2.49 1.6-9.02 5.11-14.52 7.81-5.5 2.7-8.88 4.6-7.5 4.22 1.37-0.37 7-2.98 12.5-5.8 5.5-2.82 12.47-6.95 15.5-9.19 3.02-2.23 6.95-5.84 8.72-8.01 1.77-2.17 3.51-5.52 3.87-7.44 0.61-3.22 0.31-3.8-3.72-7.29-2.4-2.09-8.2-5.77-12.87-8.18-4.68-2.42-12.66-6-17.75-7.96-5.09-1.96-9.59-3.58-10-3.6-0.41-0.01-0.53 0.17-0.25 0.4zm-574.91 9.13c-0.06 1.1 0.83 7.17 1.96 13.5 1.14 6.32 3.2 16.45 4.57 22.5 1.38 6.05 2.69 10.77 2.92 10.5 0.22-0.28-0.75-5.68-2.17-12-1.41-6.33-3.61-17.13-4.88-24-1.26-6.88-2.35-11.6-2.4-10.5zm693.62 23.18c-0.98 4.3-1.58 8.04-1.33 8.32 0.25 0.27 1.22-2.65 2.14-6.5 0.93-3.85 1.53-7.59 1.33-8.32-0.19-0.72-1.15 2.2-2.14 6.5zm-672.29 27.32c0 11.82 0.15 16.55 0.33 10.5 0.17-6.05 0.17-15.73 0-21.5-0.18-5.78-0.33-0.83-0.33 11zm668.31-11.72c-0.97 3.42-1.65 6.32-1.5 6.45 0.15 0.13 1-2.5 1.88-5.84 0.89-3.34 1.57-6.24 1.5-6.45-0.06-0.2-0.91 2.42-1.88 5.84zm-478.73-2.46c-5.23 0.86-8.83 1.71-8 1.88 0.82 0.16 6.45-0.54 12.5-1.58 6.05-1.03 9.65-1.88 8-1.87-1.65 0.01-7.28 0.72-12.5 1.57zm-193.78 14.18c-0.12 8.23-0.52 12.16-1.17 11.5-0.55-0.55-2.1-4.15-3.45-8-1.35-3.85-2.48-6.44-2.53-5.75-0.04 0.69 1.62 6.31 3.68 12.5l3.75 11.25c0.45-12.4 0.43-20.05 0.24-25-0.29-7.89-0.35-7.46-0.52 3.5zm169.78-10.32c-5.23 0.8-9.28 1.67-9 1.93 0.27 0.25 5.45-0.28 11.5-1.18 6.05-0.91 11.19-1.83 11.42-2.04 0.23-0.21-0.67-0.34-2-0.28-1.33 0.06-6.7 0.76-11.92 1.57zm505.08 9.16c-1.84 5.86-3.53 11.33-3.77 12.16-0.38 1.33-0.32 1.33 0.54 0 0.53-0.83 2.39-6 4.13-11.5 1.74-5.5 3.01-10.3 2.8-10.66-0.2-0.36-1.87 4.14-3.7 10zm-9 9.39c-2.41 6.75-5.66 15.19-7.24 18.77-1.58 3.57-2.75 6.62-2.6 6.76 0.14 0.14 2.01-3.68 4.16-8.5 2.14-4.82 5.32-13.21 7.05-18.65 1.73-5.45 3.11-10.07 3.07-10.28-0.04-0.21-2.04 5.15-4.44 11.9zm-115.83-7.35c-3.99 1.44-7.28 2.84-7.3 3.12-0.02 0.27 5.05 2.84 11.26 5.71 6.21 2.86 15.68 6.8 21.04 8.75 5.36 1.95 10.31 3.52 11 3.49 0.69-0.03-3.48-1.78-9.25-3.88-5.78-2.11-14.78-5.7-20-7.99-5.23-2.29-9.95-4.59-10.5-5.12-0.65-0.62 0.05-1.31 2-1.99 1.65-0.57 4.8-1.89 7-2.92 2.2-1.04 3.55-1.86 3-1.84-0.55 0.03-4.26 1.23-8.25 2.67zm-202.66 6.1c-0.33 0.56-0.14 1.24 0.41 1.52 0.64 0.32 1 13.17 1 35.5 0 27.11-0.28 35.09-1.25 35.42-0.69 0.23-0.46 0.46 0.5 0.5 1.63 0.07 1.76-2.33 1.85-36.36 0.07-23.75-0.25-36.64-0.91-37.02-0.56-0.31-1.28-0.12-1.6 0.44zm-24.59 0.76c3.57 0.19 9.65 0.19 13.5 0 3.85-0.19 0.92-0.35-6.5-0.35-7.43 0-10.58 0.16-7 0.35zm33.22 12.51l0.21 13.25c0.56-25.1 0.64-25.51 2.82-25.86 1.85-0.3 1.76-0.39-0.5-0.5l-2.75-0.14zm-53.72-11.52c2.2 0.21 6.03 0.21 8.5 0 2.48-0.21 0.68-0.38-4-0.38-4.67 0-6.7 0.17-4.5 0.38zm-16.5 1c1.93 0.21 5.3 0.21 7.5 0 2.2-0.22 0.63-0.39-3.5-0.39-4.12 0-5.92 0.17-4 0.39zm-15 1c2.48 0.21 6.08 0.21 8 0 1.93-0.22-0.1-0.39-4.5-0.39-4.4 0.01-5.97 0.18-3.5 0.39zm-17.5 0.99c1.65 0.22 4.8 0.22 7 0.01 2.2-0.22 0.85-0.4-3-0.4-3.85-0.01-5.65 0.17-4 0.39zm128 0.34c2.2 0.45 5.35 0.79 7 0.76 2.42-0.06 2.15-0.24-1.37-0.95-2.41-0.48-5.56-0.82-7-0.76-1.96 0.09-1.61 0.33 1.37 0.95zm-144 0.66c1.65 0.22 4.8 0.22 7 0.01 2.2-0.22 0.85-0.4-3-0.4-3.85-0.01-5.65 0.17-4 0.39zm-15 1c1.65 0.22 4.8 0.22 7 0.01 2.2-0.22 0.85-0.4-3-0.4-3.85-0.01-5.65 0.17-4 0.39zm445.04 6.53c-1.52 3.99-5.43 12.87-8.7 19.75-3.27 6.87-8.02 16.1-10.55 20.5-2.53 4.4-5.32 9.11-6.19 10.46-0.98 1.51-1.12 2.19-0.35 1.75 0.69-0.39 3.44-4.65 6.11-9.46 2.67-4.81 6.9-12.8 9.41-17.75 2.51-4.95 6.34-13.28 8.53-18.5 2.18-5.23 4.23-10.51 4.54-11.75 0.32-1.24 0.44-2.25 0.27-2.25-0.17 0-1.55 3.26-3.07 7.25zm35.58 8.02c-2.94 7.83-8.85 21.43-13.14 30.23-4.29 8.8-9.65 19.26-11.89 23.25-2.25 3.99-3.86 7.25-3.59 7.25 0.28 0 2.47-3.49 4.88-7.75 2.4-4.26 6.63-12.25 9.38-17.75 2.76-5.5 7.04-14.73 9.51-20.5 2.47-5.78 5.8-14.5 7.4-19.39 1.6-4.9 2.88-9.05 2.85-9.23-0.04-0.19-2.47 6.06-5.4 13.89zm-265.62-11.26c9.2 0.44 15.54 1.24 18.5 2.35 2.48 0.92 4.95 1.63 5.5 1.56 0.55-0.07-2.15-1.18-6-2.47-5.98-2.01-8.82-2.33-19.5-2.22l-12.5 0.12zm-329 4.71c1.65 0.22 4.8 0.22 7 0 2.2-0.21 0.85-0.39-3-0.4-3.85 0-5.65 0.18-4 0.4zm356.5 0.32c1.38 0.6 8.13 2.64 15 4.53 6.88 1.88 13.18 3.4 14 3.36 0.83-0.03-4.8-1.82-12.5-3.97-7.7-2.15-15.12-4.16-16.5-4.46l-2.5-0.55zm-409.16 2.86c-4.77 0.33-8.85 0.9-9.07 1.27-0.22 0.37 0.76 3.41 2.17 6.75 1.41 3.34 2.67 5.85 2.81 5.58 0.14-0.28-0.65-2.31-1.75-4.51-1.1-2.2-2-4.67-2-5.5 0-0.82 0.11-1.55 0.25-1.62 0.14-0.07 7-0.67 15.25-1.35 9.08-0.75 12.24-1.23 8-1.22-3.85 0.01-10.9 0.28-15.66 0.6zm-24.34 2.09l-7 0.65c15.9 0.34 16.54 0.52 17.07 2.6 0.31 1.24 0.77 2.03 1.02 1.75 0.26-0.27-0.11-1.75-0.81-3.27-0.7-1.53-1.73-2.69-2.28-2.58-0.55 0.12-4.15 0.5-8 0.85zm587.5 1.63c1.38 0.29 4.3 0.94 6.5 1.44 2.61 0.59 3.66 0.56 3-0.08-0.55-0.53-3.47-1.18-6.5-1.43-3.02-0.25-4.37-0.21-3 0.07zm-615 1.37c0 0.55 1.24 3.93 2.75 7.52 1.51 3.58 2.86 6.28 3 6 0.14-0.29-0.76-2.6-2-5.14-1.23-2.55-2.13-5.47-2-6.5 0.16-1.21 1.23-2 3-2.23 2.07-0.26 1.83-0.38-1-0.5-2.06-0.08-3.75 0.3-3.75 0.85zm649.14 9.67c-1.23 2.66-4.99 9.78-8.35 15.83-3.35 6.05-8.13 14.15-10.6 18-2.48 3.85-7.22 10.83-10.55 15.5-3.33 4.68-10.18 13.45-15.22 19.5-5.04 6.05-11.24 13.14-13.79 15.75-2.54 2.62-4.61 5.09-4.58 5.5 0.02 0.42 2.55-1.95 5.61-5.25 3.07-3.3 9.46-10.64 14.21-16.32 4.75-5.67 12.16-15.35 16.48-21.5 4.32-6.15 10.11-15 12.88-19.68 2.77-4.67 7.67-13.56 10.9-19.75 3.23-6.18 5.73-11.51 5.57-11.83-0.17-0.32-1.32 1.59-2.56 4.25zm-107.14 0.34c2.48 0.47 6.53 0.89 9 0.95 2.48 0.05 4.28-0.08 4-0.3-0.27-0.22-4.32-0.65-9-0.95-6.17-0.4-7.27-0.31-4 0.3zm33.5 0.99l-20 0.57c29.45 0.25 39.8-0.05 42-0.51 3.11-0.64 3.34-0.8 1-0.72-1.65 0.05-12 0.35-23 0.66zm-569.47 4.25c-0.01 0.42 2.15 5.37 4.8 11 2.66 5.64 8.11 16.1 12.11 23.25 4.01 7.15 11.13 18.63 15.82 25.5 4.7 6.88 11.03 15.65 14.08 19.5 3.05 3.85 9.68 11.73 14.73 17.5 5.05 5.78 14.75 15.91 21.56 22.52 6.8 6.6 16.87 15.63 22.37 20.06 5.5 4.43 14.05 11.01 19 14.62 4.95 3.61 13.73 9.47 19.5 13.03 5.78 3.56 15.23 9.04 21 12.17 5.78 3.13 15.68 8.1 22 11.03 6.33 2.94 17.35 7.43 24.5 9.99 7.15 2.56 13.11 4.52 13.25 4.37 0.13-0.16-1.89-1.1-4.5-2.08-2.61-0.99-9.02-3.44-14.25-5.44-5.22-2-16.7-7.06-25.5-11.24-8.8-4.19-21.85-11.15-29-15.47-7.15-4.32-16.32-10.15-20.38-12.96-4.06-2.8-8.33-5.76-9.5-6.57-1.16-0.81-6.84-5.29-12.62-9.96-5.77-4.67-15.17-12.78-20.88-18.03-5.71-5.24-15.39-15.16-21.52-22.04-6.13-6.87-14.55-16.77-18.7-22-4.16-5.22-9.96-13.1-12.89-17.5-2.93-4.4-6.09-9.12-7.03-10.5-0.93-1.37-3.96-6.32-6.74-11-2.77-4.67-8.67-15.7-13.11-24.5-4.44-8.8-8.08-15.66-8.1-15.25zm48.58 8c1.47 2.89 5.88 10.43 9.81 16.75 3.92 6.33 10.02 15.33 13.55 20 3.53 4.68 9.81 12.55 13.96 17.5 4.14 4.95 13.17 14.66 20.05 21.57 6.89 6.91 17.25 16.41 23.02 21.11 5.78 4.7 14.55 11.46 19.5 15.03 4.95 3.56 12.83 8.86 17.5 11.79 4.68 2.92 15.7 9.03 24.5 13.56 8.8 4.53 20.16 9.86 25.25 11.84 5.09 1.98 9.47 3.49 9.73 3.35 0.26-0.13-3.9-1.99-9.25-4.12-5.35-2.12-16.25-7.23-24.23-11.35-7.97-4.12-20.12-11.05-27-15.41-6.87-4.36-15.49-10.05-19.15-12.65-3.66-2.59-11.93-9.22-18.4-14.72-6.46-5.5-17.26-15.62-24-22.5-6.74-6.87-14.69-15.42-17.66-19-2.97-3.57-8.12-10.1-11.45-14.5-3.34-4.4-8.98-12.5-12.55-18-3.56-5.5-8.27-13.48-10.46-17.75-2.18-4.26-4.29-7.75-4.68-7.75-0.38 0 0.5 2.37 1.96 5.25zm4.92 18.75c0.46 0.83 3.52 5.55 6.8 10.5 3.29 4.95 8.68 12.6 11.98 17 3.31 4.4 7.85 10.05 10.1 12.55 2.25 2.5 7.47 8.32 11.59 12.92 4.13 4.61 12.02 12.46 17.55 17.45 5.52 5 11.93 10.55 14.25 12.33 2.31 1.79 4.22 3.14 4.25 3 0.02-0.13-3.01-2.88-6.75-6.09-3.74-3.22-11.92-10.87-18.19-17-6.26-6.14-15.28-15.66-20.05-21.16-4.76-5.5-10.7-12.7-13.19-16-2.5-3.3-7.37-10.27-10.84-15.5-3.46-5.22-6.75-9.95-7.31-10.5q-1.02-1.01-0.19 0.5zm569.74 12.75c-3.89 5.92-10.88 15.48-15.55 21.25-4.66 5.78-12.06 14.33-16.45 19-7.38 7.86-8.13 8.4-9.88 7.06-1.76-1.35-1.78-1.32-0.39 0.35 1.04 1.24 2.01 1.53 3.15 0.94 0.9-0.46 6.08-5.8 11.5-11.85 5.42-6.05 12.82-14.82 16.45-19.5 3.62-4.67 8.84-11.87 11.59-16 2.75-4.12 5.49-8.51 6.09-9.75 0.6-1.23 0.97-2.25 0.83-2.25-0.15 0-3.45 4.84-7.34 10.75zm-301.68 1.5c0.23 0.42 4.01 0.75 8.41 0.75 7.49 0 8.03 0.15 8.5 2.25 0.27 1.24 0.64 5.18 0.83 8.75 0.2 3.89 0.3 2.89 0.25-2.5l-0.08-9c-14.19-0.77-18.13-0.66-17.91-0.25zm24.65 31l0.23 31.25 0.53-61.5 17.5-0.58-18.5-0.42zm310.76-17.5c-2.31 3.72-7.18 10.8-10.82 15.75-3.64 4.95-10.74 13.95-15.78 20-5.04 6.05-13.6 15.54-19.03 21.08-5.42 5.55-14.14 14.06-19.36 18.92-5.23 4.85-7.7 7.35-5.5 5.54 2.2-1.8 9.14-8.06 15.42-13.91 6.28-5.84 16.34-16.25 22.36-23.13 6.03-6.87 14.65-17.45 19.16-23.5 4.51-6.05 9.55-13.02 11.2-15.5 1.65-2.47 3.97-6.18 5.16-8.25 1.19-2.06 1.99-3.75 1.77-3.75-0.21 0-2.28 3.04-4.58 6.75zm-311.52 51.94c-0.47 0.38-0.75 17.59-0.62 38.25l0.23 37.56c25.12-1.26 34.67-2 37.42-2.47 3.29-0.55 1.59-0.61-5-0.18-5.5 0.36-14.73 0.65-20.5 0.65h-10.5c0.59-57.73 0.55-74.5 0.3-74.5-0.26 0-0.85 0.31-1.33 0.69zm-212.47 8.78c1.37 1.5 10.15 7.81 19.5 14.02 9.35 6.21 19.02 12.25 21.5 13.41 2.47 1.17 3.82 1.67 3 1.1-0.83-0.56-7.49-4.73-14.81-9.26-7.31-4.53-17.44-11.34-22.5-15.13-5.05-3.78-8.07-5.65-6.69-4.14zm439.97 30.3c-4.68 3.7-13.24 9.88-19.01 13.73-5.77 3.85-11.38 7.56-12.48 8.23-1.09 0.68-4.8 2.82-8.23 4.75-3.44 1.94-6.25 3.75-6.25 4.02 0 0.28 3.03-1.15 6.75-3.16 3.71-2.02 11.47-6.82 17.25-10.68 5.77-3.85 14.88-10.3 20.25-14.33 5.36-4.03 9.96-7.78 10.21-8.33 0.26-0.55 0.37-0.99 0.25-0.98-0.12 0.01-4.05 3.05-8.74 6.75zm-393.47 0.03c0.55 0.55 5.61 3.29 11.25 6.1 5.63 2.81 10.45 4.99 10.7 4.85 0.25-0.13-4.81-2.87-11.25-6.09-6.44-3.21-11.25-5.4-10.7-4.86zm158.5 21.95l0.01 13.75c-19-1.14-27.66-1.68-31.51-1.93-6.71-0.43-6.77-0.42-1.5 0.38 3.02 0.46 11.91 1.22 19.75 1.69l14.26 0.86c-0.01-22.08-0.24-28.5-0.51-28.5-0.28 0-0.5 6.19-0.5 13.75zm-124-5.43c1.37 0.8 8.46 3.53 15.75 6.07 7.28 2.54 13.81 4.59 14.5 4.56 0.68-0.03-5.5-2.44-13.75-5.37-8.25-2.93-15.9-5.63-17-6.01-1.23-0.43-1.04-0.14 0.5 0.75zm13-0.82c0 0.28 4.83 2.05 10.75 3.94 5.91 1.89 13.55 4.26 16.98 5.25 3.43 1 6.44 1.59 6.7 1.31 0.26-0.27-2.77-1.36-6.73-2.42-3.96-1.05-11.51-3.41-16.78-5.25-5.27-1.83-9.89-3.33-10.25-3.33-0.37 0-0.67 0.23-0.67 0.5zm185.5 12.96c-2.75 0.72-4.44 1.36-3.75 1.43 0.68 0.06 3.51-0.38 6.27-0.99 4.05-0.9 5.23-0.85 6.08 0.25 0.86 1.11 0.98 1.09 0.65-0.15-0.23-0.82-1.27-1.57-2.33-1.67-1.06-0.09-4.17 0.42-6.92 1.13zm7.5 3.45c-0.83 0.46-4.65 1.38-8.5 2.04-3.85 0.67-6.78 1.41-6.5 1.65 0.27 0.24 3.42-0.02 7-0.59 3.57-0.57 7.4-1.69 8.5-2.49 1.1-0.8 1.77-1.45 1.5-1.45-0.28 0-1.18 0.37-2 0.84zm92 6.09c-7.43 3.8-13.17 6.92-12.75 6.95 0.41 0.03 6.6-2.87 13.75-6.45 7.15-3.57 13-6.72 13-7 0-0.27-0.12-0.47-0.25-0.44-0.14 0.03-6.33 3.15-13.75 6.94zm-124.5 0c-3.4 0.61-3.55 0.73-1 0.8 1.65 0.05 4.8-0.28 7-0.74 3.31-0.68 3.48-0.82 1-0.8-1.65 0.02-4.8 0.35-7 0.74zm-51.25 3.62c1.58 0.35 1.75 2.03 1.75 17.88v17.5l-19.5 0.59 20.5 0.41v-37c-3.85 0.2-3.99 0.35-2.75 0.62zm9.25 0.05c-0.46 0.37-0.76 8.69-0.67 18.5l0.17 17.83 22.5-0.42-21.5-0.58c0-30.19 0.26-33.25 1.57-34.5 1.27-1.2 1.3-1.5 0.17-1.5-0.78 0-1.78 0.3-2.24 0.67zm138 9.19c-2.2 1-6.48 2.6-9.5 3.56-3.03 0.95-5.28 1.94-5 2.18 0.27 0.25 4.1-0.83 8.5-2.4 4.4-1.57 8.9-3.36 10-3.99 1.1-0.63 1.55-1.15 1-1.15-0.55-0.01-2.8 0.81-5 1.8zm-28 9.77c-2.2 0.81-9.85 3.01-17 4.89-7.15 1.87-17.15 4.21-22.22 5.19-5.06 0.99-9.11 1.93-9 2.1 0.12 0.16 5.17-0.62 11.22-1.73 6.05-1.12 16.62-3.59 23.5-5.49 6.87-1.9 14.3-4.13 16.5-4.95 2.2-0.82 3.32-1.49 2.5-1.49-0.83 0-3.3 0.66-5.5 1.48zm-195 8.41c3.85 0.99 7.9 1.79 9 1.78 1.1-0.01-1.38-0.86-5.5-1.88-4.13-1.02-8.18-1.82-9-1.78-0.83 0.04 1.65 0.89 5.5 1.88zm134.5 4.96c-3.43 0.73-3.44 0.74-0.5 0.82 1.65 0.04 4.8-0.3 7-0.76l4-0.83c-5.43 0.03-8.58 0.37-10.5 0.77zm-100.5 1.05c2.75 0.43 6.57 0.76 8.5 0.73 3.1-0.04 2.96-0.14-1.27-0.91-2.62-0.48-6.44-0.81-8.5-0.73-3.46 0.12-3.37 0.19 1.27 0.91z"/>
		<path id="Path 6" class="s0" d="m515.25 446.66c-1.98 0.21-3.48 1.02-3.85 2.09-0.33 0.96-1.4 4-2.36 6.75l-1.76 5c45.89 1.11 65.3 1.93 72.72 2.54 7.42 0.61 20.25 1.95 28.5 2.98 11.55 1.45 15.16 1.61 15.71 0.68 0.39-0.66 0.39-1.49 0-1.85-0.39-0.36-7.23-2.9-15.21-5.64-7.98-2.74-19.67-6.15-26-7.56-6.33-1.42-17.13-3.27-24-4.12-6.87-0.84-18.8-1.46-26.5-1.37-7.7 0.09-15.46 0.31-17.25 0.5z"/>
		<path id="Path 7" class="s1" d="m530 445.73c2.48 0.21 6.08 0.21 8 0 1.92-0.22-0.1-0.39-4.5-0.39-4.4 0.01-5.98 0.18-3.5 0.39zm-13 16.02c5.77 0.17 15.67 0.17 22 0 6.33-0.18 1.6-0.32-10.5-0.32-12.1 0-17.27 0.14-11.5 0.32z"/>
	</g>
</svg>